<svg width="38" height="55" viewBox="0 0 38 55" fill="none" xmlns="http://www.w3.org/2000/svg">
<path d="M0 9.98069C0 8.1042 1.52119 6.58301 3.39768 6.58301H24.4208C26.2973 6.58301 27.8185 8.10421 27.8185 9.9807V51.6023C27.8185 53.4788 26.2973 55 24.4208 55H3.39768C1.5212 55 0 53.4788 0 51.6023V9.98069Z" fill="#489FB5"/>
<path d="M20.8584 19.3243C21.3366 19.3243 21.69 19.3452 21.9187 19.3869C22.1682 19.4078 22.4384 19.5016 22.7295 19.6685C23.0413 19.8354 23.2596 20.117 23.3844 20.5133C23.5091 20.9096 23.5715 21.4415 23.5715 22.109C23.5715 22.7765 23.5091 23.3084 23.3844 23.7047C23.2596 24.101 23.0413 24.3826 22.7295 24.5495C22.4176 24.6955 22.137 24.7894 21.8875 24.8311C21.6588 24.8519 21.295 24.8624 20.796 24.8624H11.2534V28.0225H17.3968C17.8958 28.0225 18.2596 28.0433 18.4883 28.0851C18.7378 28.1059 19.0185 28.1998 19.3303 28.3667C19.8709 28.6795 20.1411 29.5035 20.1411 30.8384C20.1411 32.2986 19.7461 33.1642 18.9561 33.4354C18.6235 33.5397 18.0933 33.5918 17.3657 33.5918H11.2534V39.5053C11.2534 40.0059 11.2326 40.371 11.191 40.6004C11.1702 40.8299 11.0767 41.101 10.9104 41.4139C10.6193 41.9771 9.80849 42.2587 8.47792 42.2587C7.02262 42.2587 6.17023 41.8624 5.92075 41.0697C5.79601 40.736 5.73364 40.2041 5.73364 39.474V22.0777C5.73364 21.0139 5.93115 20.2943 6.32616 19.9188C6.72117 19.5225 7.46961 19.3243 8.57148 19.3243H20.8584Z" fill="#FFA62B"/>
<path d="M11.7083 0C10.6369 0 9.76831 0.868553 9.76831 1.93997V4.88417H24.4208C27.2356 4.88417 29.5173 7.16596 29.5173 9.98069V48.417H35.6469C36.7183 48.417 37.5868 47.5484 37.5868 46.477V1.93997C37.5868 0.868553 36.7183 0 35.6469 0H11.7083Z" fill="#16697A"/>
</svg>
